<mxfile host="app.diagrams.net" agent="Mozilla/5.0 (Macintosh; Intel Mac OS X 10_15_7) AppleWebKit/537.36 (KHTML, like Gecko) Chrome/131.0.0.0 Safari/537.36" version="26.0.10">
  <diagram name="PÃ¡gina-1" id="WPFLLHb4QhqJK6Wt84WR">
    <mxGraphModel dx="1194" dy="732" grid="1" gridSize="10" guides="1" tooltips="1" connect="1" arrows="1" fold="1" page="1" pageScale="1" pageWidth="827" pageHeight="1169" math="0" shadow="0">
      <root>
        <mxCell id="0" />
        <mxCell id="1" parent="0" />
        <mxCell id="qGD6fZh5MoazBMkF02lt-4" value="" style="rounded=1;whiteSpace=wrap;html=1;" vertex="1" parent="1">
          <mxGeometry x="250" y="181" width="120" height="166" as="geometry" />
        </mxCell>
        <mxCell id="qGD6fZh5MoazBMkF02lt-1" value="" style="aspect=fixed;sketch=0;html=1;dashed=0;whitespace=wrap;verticalLabelPosition=bottom;verticalAlign=top;fillColor=#2875E2;strokeColor=#ffffff;points=[[0.005,0.63,0],[0.1,0.2,0],[0.9,0.2,0],[0.5,0,0],[0.995,0.63,0],[0.72,0.99,0],[0.5,1,0],[0.28,0.99,0]];shape=mxgraph.kubernetes.icon2;kubernetesLabel=1;prIcon=user" vertex="1" parent="1">
          <mxGeometry x="40" y="230.4" width="70" height="67.2" as="geometry" />
        </mxCell>
        <mxCell id="qGD6fZh5MoazBMkF02lt-5" value="" style="shape=image;html=1;verticalAlign=top;verticalLabelPosition=bottom;labelBackgroundColor=#ffffff;imageAspect=0;aspect=fixed;image=https://cdn0.iconfinder.com/data/icons/phosphor-regular-vol-3/256/gitlab-logo-simple-128.png" vertex="1" parent="1">
          <mxGeometry x="285" y="235" width="50" height="50" as="geometry" />
        </mxCell>
        <mxCell id="qGD6fZh5MoazBMkF02lt-6" value="Runner&lt;div&gt;&lt;br&gt;&lt;/div&gt;" style="text;html=1;align=center;verticalAlign=middle;resizable=0;points=[];autosize=1;strokeColor=none;fillColor=none;" vertex="1" parent="1">
          <mxGeometry x="280" y="280" width="60" height="40" as="geometry" />
        </mxCell>
        <mxCell id="qGD6fZh5MoazBMkF02lt-7" value="Gitlab CICD" style="text;html=1;align=center;verticalAlign=middle;resizable=0;points=[];autosize=1;strokeColor=none;fillColor=none;" vertex="1" parent="1">
          <mxGeometry x="265" y="181" width="90" height="30" as="geometry" />
        </mxCell>
        <mxCell id="qGD6fZh5MoazBMkF02lt-15" value="AWS Cloud" style="points=[[0,0],[0.25,0],[0.5,0],[0.75,0],[1,0],[1,0.25],[1,0.5],[1,0.75],[1,1],[0.75,1],[0.5,1],[0.25,1],[0,1],[0,0.75],[0,0.5],[0,0.25]];outlineConnect=0;gradientColor=none;html=1;whiteSpace=wrap;fontSize=12;fontStyle=0;container=1;pointerEvents=0;collapsible=0;recursiveResize=0;shape=mxgraph.aws4.group;grIcon=mxgraph.aws4.group_aws_cloud_alt;strokeColor=#232F3E;fillColor=none;verticalAlign=top;align=left;spacingLeft=30;fontColor=#232F3E;dashed=0;" vertex="1" parent="1">
          <mxGeometry x="520" y="80" width="410" height="370" as="geometry" />
        </mxCell>
        <mxCell id="qGD6fZh5MoazBMkF02lt-16" value="VPC" style="points=[[0,0],[0.25,0],[0.5,0],[0.75,0],[1,0],[1,0.25],[1,0.5],[1,0.75],[1,1],[0.75,1],[0.5,1],[0.25,1],[0,1],[0,0.75],[0,0.5],[0,0.25]];outlineConnect=0;gradientColor=none;html=1;whiteSpace=wrap;fontSize=12;fontStyle=0;container=1;pointerEvents=0;collapsible=0;recursiveResize=0;shape=mxgraph.aws4.group;grIcon=mxgraph.aws4.group_vpc2;strokeColor=#8C4FFF;fillColor=none;verticalAlign=top;align=left;spacingLeft=30;fontColor=#AAB7B8;dashed=0;" vertex="1" parent="qGD6fZh5MoazBMkF02lt-15">
          <mxGeometry x="30" y="27.5" width="350" height="315" as="geometry" />
        </mxCell>
        <mxCell id="qGD6fZh5MoazBMkF02lt-17" value="Subnet" style="outlineConnect=0;html=1;whiteSpace=wrap;fontSize=12;fontStyle=0;shape=mxgraph.aws4.group;grIcon=mxgraph.aws4.group_subnet;strokeColor=#6c8ebf;fillColor=#dae8fc;verticalAlign=top;align=left;spacingLeft=30;dashed=0;shadow=1;" vertex="1" parent="qGD6fZh5MoazBMkF02lt-16">
          <mxGeometry x="30" y="30" width="300" height="260" as="geometry" />
        </mxCell>
        <mxCell id="qGD6fZh5MoazBMkF02lt-18" value="" style="sketch=0;points=[[0,0,0],[0.25,0,0],[0.5,0,0],[0.75,0,0],[1,0,0],[0,1,0],[0.25,1,0],[0.5,1,0],[0.75,1,0],[1,1,0],[0,0.25,0],[0,0.5,0],[0,0.75,0],[1,0.25,0],[1,0.5,0],[1,0.75,0]];outlineConnect=0;fontColor=#232F3E;fillColor=#ED7100;strokeColor=#ffffff;dashed=0;verticalLabelPosition=bottom;verticalAlign=top;align=center;html=1;fontSize=12;fontStyle=0;aspect=fixed;shape=mxgraph.aws4.resourceIcon;resIcon=mxgraph.aws4.ec2;" vertex="1" parent="qGD6fZh5MoazBMkF02lt-16">
          <mxGeometry x="50" y="127.25" width="68" height="68" as="geometry" />
        </mxCell>
        <mxCell id="qGD6fZh5MoazBMkF02lt-19" value="" style="sketch=0;points=[[0,0,0],[0.25,0,0],[0.5,0,0],[0.75,0,0],[1,0,0],[0,1,0],[0.25,1,0],[0.5,1,0],[0.75,1,0],[1,1,0],[0,0.25,0],[0,0.5,0],[0,0.75,0],[1,0.25,0],[1,0.5,0],[1,0.75,0]];outlineConnect=0;fontColor=#232F3E;fillColor=#C925D1;strokeColor=#ffffff;dashed=0;verticalLabelPosition=bottom;verticalAlign=top;align=center;html=1;fontSize=12;fontStyle=0;aspect=fixed;shape=mxgraph.aws4.resourceIcon;resIcon=mxgraph.aws4.rds;" vertex="1" parent="qGD6fZh5MoazBMkF02lt-16">
          <mxGeometry x="250" y="126" width="68" height="68" as="geometry" />
        </mxCell>
        <mxCell id="qGD6fZh5MoazBMkF02lt-20" value="Monitoring&lt;br&gt;Tool" style="text;html=1;align=center;verticalAlign=middle;resizable=0;points=[];autosize=1;strokeColor=none;fillColor=none;" vertex="1" parent="qGD6fZh5MoazBMkF02lt-16">
          <mxGeometry x="44" y="192.5" width="80" height="40" as="geometry" />
        </mxCell>
        <mxCell id="qGD6fZh5MoazBMkF02lt-23" value="RDS" style="text;html=1;align=center;verticalAlign=middle;resizable=0;points=[];autosize=1;strokeColor=none;fillColor=none;" vertex="1" parent="qGD6fZh5MoazBMkF02lt-16">
          <mxGeometry x="259" y="192.5" width="50" height="30" as="geometry" />
        </mxCell>
        <mxCell id="qGD6fZh5MoazBMkF02lt-31" value="" style="endArrow=classic;html=1;rounded=0;entryX=0;entryY=0.5;entryDx=0;entryDy=0;entryPerimeter=0;" edge="1" parent="qGD6fZh5MoazBMkF02lt-16" target="qGD6fZh5MoazBMkF02lt-19">
          <mxGeometry relative="1" as="geometry">
            <mxPoint x="130" y="160.75" as="sourcePoint" />
            <mxPoint x="230" y="160.75" as="targetPoint" />
          </mxGeometry>
        </mxCell>
        <mxCell id="qGD6fZh5MoazBMkF02lt-32" value="Label" style="edgeLabel;resizable=0;html=1;;align=center;verticalAlign=middle;" connectable="0" vertex="1" parent="qGD6fZh5MoazBMkF02lt-31">
          <mxGeometry relative="1" as="geometry" />
        </mxCell>
        <mxCell id="qGD6fZh5MoazBMkF02lt-33" value="&lt;span style=&quot;font-size: 12px; background-color: rgb(251, 251, 251);&quot;&gt;Store Monitoring&lt;/span&gt;&lt;br style=&quot;font-size: 12px; background-color: rgb(251, 251, 251);&quot;&gt;&lt;span style=&quot;font-size: 12px; background-color: rgb(251, 251, 251);&quot;&gt;Data&lt;/span&gt;" style="edgeLabel;html=1;align=center;verticalAlign=middle;resizable=0;points=[];" vertex="1" connectable="0" parent="qGD6fZh5MoazBMkF02lt-31">
          <mxGeometry x="0.02" y="-1" relative="1" as="geometry">
            <mxPoint as="offset" />
          </mxGeometry>
        </mxCell>
        <mxCell id="qGD6fZh5MoazBMkF02lt-24" value="" style="endArrow=classic;html=1;rounded=0;entryX=0;entryY=0.5;entryDx=0;entryDy=0;" edge="1" parent="1" target="qGD6fZh5MoazBMkF02lt-4">
          <mxGeometry relative="1" as="geometry">
            <mxPoint x="110" y="264" as="sourcePoint" />
            <mxPoint x="220" y="259.5" as="targetPoint" />
          </mxGeometry>
        </mxCell>
        <mxCell id="qGD6fZh5MoazBMkF02lt-25" value="Label" style="edgeLabel;resizable=0;html=1;;align=center;verticalAlign=middle;" connectable="0" vertex="1" parent="qGD6fZh5MoazBMkF02lt-24">
          <mxGeometry relative="1" as="geometry" />
        </mxCell>
        <mxCell id="qGD6fZh5MoazBMkF02lt-26" value="&lt;span style=&quot;font-size: 12px; background-color: rgb(251, 251, 251);&quot;&gt;trigger&lt;/span&gt;&lt;br style=&quot;font-size: 12px; background-color: rgb(251, 251, 251);&quot;&gt;&lt;span style=&quot;font-size: 12px; background-color: rgb(251, 251, 251);&quot;&gt;deployment&lt;/span&gt;" style="edgeLabel;html=1;align=center;verticalAlign=middle;resizable=0;points=[];" vertex="1" connectable="0" parent="qGD6fZh5MoazBMkF02lt-24">
          <mxGeometry y="1" relative="1" as="geometry">
            <mxPoint y="1" as="offset" />
          </mxGeometry>
        </mxCell>
        <mxCell id="qGD6fZh5MoazBMkF02lt-27" value="&lt;span style=&quot;font-size: 12px; background-color: rgb(251, 251, 251);&quot;&gt;Deploy&lt;/span&gt;&lt;br style=&quot;font-size: 12px; background-color: rgb(251, 251, 251);&quot;&gt;&lt;span style=&quot;font-size: 12px; background-color: rgb(251, 251, 251);&quot;&gt;Monitoring&lt;/span&gt;&lt;br style=&quot;font-size: 12px; background-color: rgb(251, 251, 251);&quot;&gt;&lt;span style=&quot;font-size: 12px; background-color: rgb(251, 251, 251);&quot;&gt;Tool&lt;/span&gt;" style="endArrow=classic;html=1;rounded=0;entryX=0;entryY=0.5;entryDx=0;entryDy=0;entryPerimeter=0;" edge="1" parent="1" target="qGD6fZh5MoazBMkF02lt-18">
          <mxGeometry relative="1" as="geometry">
            <mxPoint x="335" y="270" as="sourcePoint" />
            <mxPoint x="435" y="270" as="targetPoint" />
          </mxGeometry>
        </mxCell>
        <mxCell id="qGD6fZh5MoazBMkF02lt-29" value="" style="endArrow=classic;html=1;rounded=0;entryX=0;entryY=0.25;entryDx=0;entryDy=0;" edge="1" parent="1" target="qGD6fZh5MoazBMkF02lt-15">
          <mxGeometry relative="1" as="geometry">
            <mxPoint x="335" y="259.5" as="sourcePoint" />
            <mxPoint x="435" y="259.5" as="targetPoint" />
            <Array as="points">
              <mxPoint x="400" y="260" />
              <mxPoint x="400" y="173" />
            </Array>
          </mxGeometry>
        </mxCell>
        <mxCell id="qGD6fZh5MoazBMkF02lt-30" value="&lt;span style=&quot;font-size: 12px; background-color: rgb(251, 251, 251);&quot;&gt;Deploy&lt;/span&gt;&lt;br style=&quot;font-size: 12px; background-color: rgb(251, 251, 251);&quot;&gt;&lt;span style=&quot;font-size: 12px; background-color: rgb(251, 251, 251);&quot;&gt;Infrastructure&lt;/span&gt;" style="edgeLabel;resizable=0;html=1;;align=center;verticalAlign=middle;" connectable="0" vertex="1" parent="qGD6fZh5MoazBMkF02lt-29">
          <mxGeometry relative="1" as="geometry">
            <mxPoint x="40" y="-19" as="offset" />
          </mxGeometry>
        </mxCell>
        <mxCell id="qGD6fZh5MoazBMkF02lt-40" value="" style="shape=image;verticalLabelPosition=bottom;labelBackgroundColor=default;verticalAlign=top;aspect=fixed;imageAspect=0;image=https://adfinis.com/wp-content/uploads/sites/9/2022/07/HashiCorp_Terraform_Logo.png;" vertex="1" parent="1">
          <mxGeometry x="390" y="90" width="89" height="66.77" as="geometry" />
        </mxCell>
      </root>
    </mxGraphModel>
  </diagram>
</mxfile>
